# File created by Blade
# Date/Time:  Tue Jan 27 19:14:06 2015
# Frame Rate: 120.000 fps
#------------------------------------------------------
:FULLY-SPECIFIED
:DEGREES
3521
root 3.886143 32.472822 0.895019 -4.192046 4.512380 0.817483
Spine -0.556421 1.867648 -1.412766
Head 19.212697 -19.348978 -7.041718
LeftShoulder -6.072185 -7.146300 22.858009
LeftArm -7.556408 36.178088 -105.257322
LeftForeArm 3.555851 -0.000000 10.272788
LeftHand 9.808924 -0.000000 -7.294907
LeftHandThumb1 -26.253704 0.000000 33.147579
RightShoulder -19.519043 11.864116 -63.770767
RightArm 117.918245 73.988456 122.358157
RightForeArm 27.470416 0.000000 140.046555
RightHand 32.140440 -0.000000 -20.036070
RightHandThumb1 -24.326973 -0.000000 -32.862282
LeftUpLeg 10.486484 -2.812685 -0.699115
LeftLeg 1.740379 -0.000000 -0.000000
LeftFoot -14.782723 9.334522 -22.095385
LeftToeBase 18.673801 -0.000000 -0.000000
RightUpLeg 10.421424 -1.172774 3.599407
RightLeg 0.113621 -0.000000 -0.000000
RightFoot -12.381234 -16.510054 14.111807
RightToeBase 12.008271 -0.000000 -0.000000
3522
root 3.884281 32.471484 0.900682 -4.245378 4.398843 0.813598
Spine -0.539779 1.954575 -1.397451
Head 19.338967 -19.204883 -7.157410
LeftShoulder -6.128705 -7.138924 22.851573
LeftArm -7.517726 36.243426 -105.188923
LeftForeArm 3.770543 -0.000000 10.406801
LeftHand 9.932126 -0.000000 -7.050167
LeftHandThumb1 -26.253704 0.000000 33.147579
RightShoulder -19.513064 11.850775 -63.761194
RightArm 117.801765 73.929034 122.213254
RightForeArm 26.502388 -0.000000 141.249278
RightHand 32.035705 -0.000000 -20.625296
RightHandThumb1 -24.326973 -0.000000 -32.862282
LeftUpLeg 10.544885 -2.750414 -0.696864
LeftLeg 1.784535 -0.000000 -0.000000
LeftFoot -14.842526 9.360161 -22.122969
LeftToeBase 18.687586 -0.000000 -0.000000
RightUpLeg 10.461921 -1.171076 3.594005
RightLeg 0.135249 -0.000000 -0.000000
RightFoot -12.365698 -16.408907 14.086256
RightToeBase 12.043267 -0.000000 -0.000000
3523
root 3.884396 32.470049 0.909618 -4.317063 4.275786 0.808906
Spine -0.514437 2.084948 -1.372935
Head 19.440839 -19.211675 -7.322664
LeftShoulder -6.158165 -7.138909 22.850017
LeftArm -7.500854 36.341892 -105.148684
LeftForeArm 3.853142 0.000000 10.602655
LeftHand 9.834733 -0.000000 -6.855559
LeftHandThumb1 -26.253704 0.000000 33.147579
RightShoulder -19.464967 11.837224 -63.757213
RightArm 118.068259 73.895298 122.464819
RightForeArm 26.134009 0.000000 142.327462
RightHand 32.226613 -0.000000 -21.605803
RightHandThumb1 -24.326973 -0.000000 -32.862282
LeftUpLeg 10.626139 -2.654870 -0.690032
LeftLeg 1.835635 -0.000000 -0.000000
LeftFoot -14.896206 9.341842 -22.178293
LeftToeBase 18.673187 -0.000000 -0.000000
RightUpLeg 10.532292 -1.174071 3.583100
RightLeg 0.150501 -0.000000 -0.000000
RightFoot -12.360107 -16.279011 14.080979
RightToeBase 12.000006 -0.000000 -0.000000
3524
root 3.875674 32.469715 0.905823 -4.296566 4.222727 0.795984
Spine -0.578354 2.143141 -1.373711
Head 19.550705 -19.235888 -7.474631
LeftShoulder -6.162676 -7.130674 22.839943
LeftArm -7.459404 36.420061 -105.053976
LeftForeArm 4.015443 -0.000000 10.782024
LeftHand 9.889013 -0.000000 -6.537925
LeftHandThumb1 -26.253704 0.000000 33.147579
RightShoulder -19.468867 11.778093 -63.733255
RightArm 118.280483 73.774913 122.693051
RightForeArm 25.714430 -0.000000 143.280927
RightHand 32.373169 0.000000 -21.724421
RightHandThumb1 -24.326973 -0.000000 -32.862282
LeftUpLeg 10.613663 -2.590014 -0.659284
LeftLeg 1.813288 -0.000000 -0.000000
LeftFoot -14.895159 9.353066 -22.145742
LeftToeBase 18.657110 -0.000000 -0.000000
RightUpLeg 10.475417 -1.182970 3.606956
RightLeg 0.192709 -0.000000 -0.000000
RightFoot -12.355541 -16.247271 14.025830
RightToeBase 12.049744 -0.000000 -0.000000
